<svg width="223" height="223" viewBox="0 0 223 223" fill="none" xmlns="http://www.w3.org/2000/svg">
<g id="asterisk 4">
<path id="Vector" d="M144.047 53.399V54.9469L145.386 54.1708L182.111 32.887C183.898 32.1975 185.847 32.6159 186.805 34.2062C186.806 34.2083 186.808 34.2103 186.809 34.2123L216.016 84.699C216.064 84.8434 216.111 84.9778 216.154 85.104C216.503 86.1218 216.668 86.6025 216.405 87.3922C216.063 88.4165 215.392 89.0697 214.762 89.3844L214.738 89.3967L214.714 89.4105L177.931 110.728L176.599 111.5L177.931 112.272L214.714 133.589L214.793 133.635L214.879 133.664C215.346 133.819 215.609 134.03 215.806 134.293C216.027 134.587 216.199 134.991 216.405 135.607C216.707 136.512 216.424 137.484 216.047 138.247L186.809 188.787C186.808 188.789 186.806 188.791 186.805 188.793C185.763 190.525 183.781 191.113 182.181 190.153L182.169 190.146L145.386 168.829L144.047 168.053V169.601V211.818C144.047 212.573 143.66 213.402 143.002 214.061C142.343 214.719 141.514 215.106 140.759 215.106H82.2398C81.4849 215.106 80.6554 214.719 79.9969 214.061C79.3383 213.402 78.9519 212.573 78.9519 211.818V169.601V168.053L77.6126 168.829L40.8876 190.113C39.1006 190.802 37.1516 190.384 36.1931 188.793C36.192 188.791 36.1908 188.789 36.1896 188.787L6.98259 138.301C6.93408 138.156 6.88793 138.022 6.84462 137.896C6.49534 136.878 6.33035 136.397 6.59358 135.607C6.93499 134.583 7.60677 133.93 8.23622 133.615L8.26081 133.603L8.28458 133.589L45.0678 112.272L46.3995 111.5L45.0678 110.728L8.28459 89.4105L8.20579 89.3648L8.11939 89.336C7.65269 89.1805 7.38982 88.9697 7.19244 88.7066C6.9717 88.4123 6.79922 88.0091 6.59358 87.3922C6.29193 86.4873 6.5743 85.5153 6.9515 84.7528L36.1896 34.2123C36.1908 34.2104 36.192 34.2084 36.1931 34.2065C37.2357 32.4749 39.2174 31.8862 40.8177 32.8463L40.8177 32.8464L40.8294 32.8532L77.6126 54.1708L78.9519 54.9469V53.399V11.1819C78.9519 10.427 79.3383 9.59746 79.9969 8.93892C80.6554 8.28037 81.4849 7.89395 82.2398 7.89395H140.759C141.514 7.89395 142.343 8.28037 143.002 8.93892C143.66 9.59746 144.047 10.427 144.047 11.1819V53.399Z" stroke="#EEFB13" stroke-width="1.784"/>
</g>
</svg>
