<svg width="13" height="12" viewBox="0 0 13 12" fill="none" xmlns="http://www.w3.org/2000/svg">
<g id="Group 8885">
<path id="Vector" d="M6.64129 5.06486C6.80812 4.87698 6.94189 4.6861 7.11624 4.52528C7.36357 4.28417 7.65638 4.09463 7.97762 3.96768C8.29886 3.84073 8.64213 3.77891 8.98748 3.7858C9.38546 3.77894 9.78248 3.82699 10.1673 3.92859C11.0481 4.1841 11.5591 4.78981 11.8041 5.64953C11.9665 6.2938 12.0398 6.95729 12.0221 7.62147C12.0221 9.02378 12.0221 10.4246 12.0221 11.8299C12.0221 11.9607 11.986 11.9952 11.8567 11.9937C11.1333 11.9877 10.4113 11.9877 9.69089 11.9937C9.56313 11.9937 9.54059 11.9561 9.54059 11.8434C9.54059 10.5097 9.54059 9.17608 9.54059 7.84241C9.5481 7.5074 9.50864 7.17299 9.42336 6.84893C9.25051 6.24773 8.82215 5.94712 8.19539 5.97869C7.34018 6.02378 6.89379 6.44913 6.78557 7.31937C6.75904 7.52672 6.74599 7.73558 6.7465 7.94462C6.7465 9.24172 6.7465 10.5388 6.7465 11.8359C6.7465 11.9652 6.71343 12.0027 6.58117 12.0012C5.85521 12.0012 5.12776 12.0012 4.4003 12.0012C4.28307 12.0012 4.25 11.9712 4.25 11.8509C4.25 9.2838 4.25 6.71616 4.25 4.14802C4.25 4.02027 4.29058 3.99772 4.41082 3.99772C5.10221 4.00374 5.79309 4.00374 6.48348 3.99772C6.60973 3.99772 6.64279 4.03831 6.63378 4.15855C6.63678 4.45013 6.64129 4.75674 6.64129 5.06486Z" fill="white"/>
<path id="Vector_2" d="M2.68009 7.99733C2.68009 9.26737 2.68009 10.5374 2.68009 11.8075C2.68009 11.9487 2.64552 11.9923 2.49972 11.9908C1.77678 11.9818 1.05534 11.9908 0.333894 11.9908C0.218163 11.9908 0.183594 11.9623 0.183594 11.8405C0.183594 9.26737 0.183594 6.69522 0.183594 4.12408C0.183594 4.01737 0.210647 3.97378 0.323372 3.98129C1.05534 3.98129 1.7873 3.98129 2.51926 3.98129C2.66055 3.98129 2.67858 4.0339 2.67858 4.15564C2.67758 5.4362 2.67808 6.71677 2.68009 7.99733Z" fill="white"/>
<path id="Vector_3" d="M2.88275 1.43387C2.88424 1.71939 2.80089 1.99892 2.64328 2.23701C2.48568 2.4751 2.26091 2.66101 1.99749 2.77117C1.73407 2.88133 1.44387 2.91077 1.1637 2.85576C0.88352 2.80075 0.625984 2.66378 0.42377 2.4622C0.221556 2.26062 0.0837702 2.00352 0.0278822 1.72352C-0.0280057 1.44351 0.000525539 1.15322 0.109858 0.889455C0.21919 0.625691 0.404402 0.400339 0.641992 0.241985C0.879582 0.0836312 1.15885 -0.000588493 1.44437 3.09535e-06C1.82447 0.00196558 2.18851 0.15352 2.4577 0.421871C2.7269 0.690221 2.8796 1.05378 2.88275 1.43387Z" fill="white"/>
</g>
</svg>
